name rise38.3101peak57.3503fall81.6963.mot
datacolumns 19
datarows 14
range 12.67495400000000 12.69662700000000
endheader
time	ground_force1_vx	ground_force1_vy	ground_force1_vz	ground_force1_px	ground_force1_py	ground_force1_pz	ground_force2_vx	ground_force2_vy	ground_force2_vz	ground_force2_px	ground_force2_py	ground_force2_pz	ground_torque1_x	ground_torque1_y	ground_torque1_z	ground_torque2_x	ground_torque2_y	ground_torque2_z	
12.67495400000000	-42.04651900000000	816.04401399999995	58.48629500000000	0.17766900000000	0.00000000000000	0.10101400000000	-4.68076000000000	32.84855900000000	6.56297600000000	0.37009300000000	0.00000000000000	-0.07258800000000	0.00000000000000	29.20435400000000	0.00000000000000	0.00000000000000	4.90125200000000	0.00000000000000	
12.67662700000000	-42.32187800000000	814.67864399999996	58.52619000000000	0.17688400000000	0.00000000000000	0.10098900000000	-5.28380100000000	39.29239600000000	7.63906600000000	0.37352200000000	0.00000000000000	-0.07355700000000	0.00000000000000	29.13107000000000	0.00000000000000	0.00000000000000	5.74649600000000	0.00000000000000	
12.67828800000000	-42.61383400000000	813.17655700000000	58.53958700000000	0.17609100000000	0.00000000000000	0.10096100000000	-5.80937900000000	45.88027500000000	8.67651300000000	0.37668900000000	0.00000000000000	-0.07443200000000	0.00000000000000	29.05277100000000	0.00000000000000	0.00000000000000	6.57401800000000	0.00000000000000	
12.67996400000000	-42.92277300000000	811.53513499999997	58.52561100000000	0.17529100000000	0.00000000000000	0.10092800000000	-6.23717000000000	52.50446600000000	9.64966900000000	0.37964700000000	0.00000000000000	-0.07522600000000	0.00000000000000	28.96949100000000	0.00000000000000	0.00000000000000	7.36458400000000	0.00000000000000	
12.68162100000000	-43.24900700000000	809.75182400000006	58.48343500000000	0.17448400000000	0.00000000000000	0.10089200000000	-6.55202100000000	59.07555900000000	10.53816200000000	0.38244100000000	0.00000000000000	-0.07595000000000	0.00000000000000	28.88126900000000	0.00000000000000	0.00000000000000	8.10267400000000	0.00000000000000	
12.68329100000000	-43.59278100000000	807.82413399999996	58.41228600000000	0.17367400000000	0.00000000000000	0.10085200000000	-6.74442500000000	65.52695000000000	11.32771000000000	0.38510400000000	0.00000000000000	-0.07661300000000	0.00000000000000	28.78815000000000	0.00000000000000	0.00000000000000	8.77713900000000	0.00000000000000	
12.68495900000000	-43.95426200000000	805.74964199999999	58.31144300000000	0.17286000000000	0.00000000000000	0.10080700000000	-6.81046900000000	71.81674800000000	12.01030600000000	0.38766200000000	0.00000000000000	-0.07722400000000	0.00000000000000	28.69018300000000	0.00000000000000	0.00000000000000	9.38140900000000	0.00000000000000	
12.68662500000000	-44.33354100000000	803.52599799999996	58.18024700000000	0.17204500000000	0.00000000000000	0.10075800000000	-6.75133100000000	77.92733500000000	12.58386400000000	0.39013800000000	0.00000000000000	-0.07778800000000	0.00000000000000	28.58742000000000	0.00000000000000	0.00000000000000	9.91328800000000	0.00000000000000	
12.68829300000000	-44.73063000000000	801.15092600000003	58.01809500000000	0.17123000000000	0.00000000000000	0.10070400000000	-6.57245500000000	83.86301200000000	13.05144400000000	0.39254700000000	0.00000000000000	-0.07831100000000	0.00000000000000	28.47991500000000	0.00000000000000	0.00000000000000	10.37443200000000	0.00000000000000	
12.68995500000000	-45.14546100000000	798.62222899999995	57.82445000000000	0.17041700000000	0.00000000000000	0.10064500000000	-6.28250500000000	89.64624499999999	13.42017800000000	0.39490200000000	0.00000000000000	-0.07879800000000	0.00000000000000	28.36772500000000	0.00000000000000	0.00000000000000	10.76959200000000	0.00000000000000	
12.69162100000000	-45.57788200000000	795.93779199999994	57.59883900000000	0.16960800000000	0.00000000000000	0.10058100000000	-5.89225000000000	95.31307800000000	13.70006300000000	0.39721500000000	0.00000000000000	-0.07925200000000	0.00000000000000	28.25090400000000	0.00000000000000	0.00000000000000	11.10574700000000	0.00000000000000	
12.69328900000000	-46.02765600000000	793.09558500000003	57.34085600000000	0.16880300000000	0.00000000000000	0.10051200000000	-5.41346500000000	100.90823000000000	13.90271900000000	0.39949300000000	0.00000000000000	-0.07967700000000	0.00000000000000	28.12950700000000	0.00000000000000	0.00000000000000	11.39119000000000	0.00000000000000	
12.69495600000000	-46.49446100000000	790.09366499999999	57.05016400000000	0.16800500000000	0.00000000000000	0.10043700000000	-4.85794300000000	106.48033400000000	14.04024400000000	0.40174200000000	0.00000000000000	-0.08007700000000	0.00000000000000	28.00358800000000	0.00000000000000	0.00000000000000	11.63467400000000	0.00000000000000	
12.69662700000000	-46.97788700000000	786.93018400000005	56.72649800000000	0.16721500000000	0.00000000000000	0.10035700000000	-4.23667300000000	112.07767500000000	14.12421500000000	0.40396700000000	0.00000000000000	-0.08045300000000	0.00000000000000	27.87319300000000	0.00000000000000	0.00000000000000	11.84465800000000	0.00000000000000	
